<?xml version="1.0" encoding="utf-8"?>
<svg xmlns="http://www.w3.org/2000/svg" style="margin: auto; background: rgb(255, 255, 255); display: block; shape-rendering: auto;" width="280" height="250" preserveAspectRatio="xMidYMid">
<style type="text/css">
  text {
    text-anchor: middle; font-size: 80px; opacity: 0;
  }
</style>
<g style="transform-origin:140px 125px;transform:scale(1)">
<g transform="translate(140,125)">
  <g transform="translate(0,0)"><g class="path" style="opacity: 1; transform-origin: -73.24px -6.1976px; animation: 5.55556s linear -2.75s infinite normal forwards running fade-cc694990-4071-424e-8a41-a53f22775b8b;"><path d="M40.08-24.72L40.08-24.72L40.08-30.64L40.08-30.64Q40.08-45.28 38.64-49.12L38.64-49.12L38.64-49.12Q37.04-53.52 34.08-54.56L34.08-54.56L34.08-54.56Q32.40-55.20 30-55.20L30-55.20L30-55.20Q27.60-55.20 25.88-54.56L25.88-54.56L25.88-54.56Q24.16-53.92 23.04-52.32L23.04-52.32L23.04-52.32Q21.92-50.72 21.24-48.96L21.24-48.96L21.24-48.96Q20.56-47.20 20.16-44L20.16-44L20.16-44Q19.68-39.36 19.68-30.32L19.68-30.32L19.68-24.56L19.68-24.56Q19.68-14.80 20.44-10.68L20.44-10.68L20.44-10.68Q21.20-6.56 22.32-4.80L22.32-4.80L22.32-4.80Q24.80-0.88 30-0.88L30-0.88L30-0.88Q36.32-0.88 38.20-6.20L38.20-6.20L38.20-6.20Q40.08-11.52 40.08-24.72zM29.84 0.80L29.84 0.80L29.84 0.80Q16.48 0.80 9.88-6.44L9.88-6.44L9.88-6.44Q3.28-13.68 3.28-27.40L3.28-27.40L3.28-27.40Q3.28-41.12 10.36-49L10.36-49L10.36-49Q17.44-56.88 30.40-56.88L30.40-56.88L30.40-56.88Q43.36-56.88 49.96-49.40L49.96-49.40L49.96-49.40Q56.56-41.92 56.56-28.16L56.56-28.16L56.56-28.16Q56.56-14.40 49.88-6.80L49.88-6.80L49.88-6.80Q43.20 0.80 29.84 0.80" fill="#51cacc" stroke="none" stroke-width="none" transform="translate(-103.15997314453125,21.842402725219728)" style="fill: rgb(81, 202, 204);"></path></g><g class="path" style="opacity: 1; transform-origin: -16.6px -6.1976px; animation: 5.55556s linear -1.83333s infinite normal forwards running fade-cc694990-4071-424e-8a41-a53f22775b8b;"><path d="M91.84-55.28L91.84-55.28L91.84-55.28Q79.44-55.28 79.44-31.36L79.44-31.36L79.44-25.04L79.44-25.04Q79.44-13.68 82.72-7.24L82.72-7.24L82.72-7.24Q86-0.80 92.40-0.80L92.40-0.80L92.40-0.80Q101.20-0.80 108.56-17.92L108.56-17.92L110-17.92L109.44-0.08L108.56-0.08L108.56-0.08Q108.08-0.96 107.68-1.32L107.68-1.32L107.68-1.32Q107.28-1.68 106.52-1.68L106.52-1.68L106.52-1.68Q105.76-1.68 100.72-0.44L100.72-0.44L100.72-0.44Q95.68 0.80 90.48 0.80L90.48 0.80L90.48 0.80Q77.44 0.80 70.28-6.24L70.28-6.24L70.28-6.24Q63.12-13.28 63.12-27.40L63.12-27.40L63.12-27.40Q63.12-41.52 70.60-49.20L70.60-49.20L70.60-49.20Q78.08-56.88 90.72-56.88L90.72-56.88L90.72-56.88Q95.60-56.88 100.28-55.64L100.28-55.64L100.28-55.64Q104.96-54.40 105.76-54.40L105.76-54.40L105.76-54.40Q106.56-54.40 106.96-54.76L106.96-54.76L106.96-54.76Q107.36-55.12 107.84-56L107.84-56L108.72-56L109.36-38.64L107.92-38.64L107.92-38.64Q104.32-46.72 100.52-51L100.52-51L100.52-51Q96.72-55.28 91.84-55.28" fill="#51cacc" stroke="none" stroke-width="none" transform="translate(-103.15997314453125,21.842402725219728)" style="fill: rgb(157, 248, 113);"></path></g><g class="path" style="opacity: 1; transform-origin: 36.76px -6.1576px; animation: 5.55556s linear -0.916667s infinite normal forwards running fade-cc694990-4071-424e-8a41-a53f22775b8b;"><path d="M116.32-56L163.52-56L164.32-35.92L162.80-35.92L162.80-35.92Q159.28-46.56 156.56-50.44L156.56-50.44L156.56-50.44Q153.84-54.32 148.72-54.32L148.72-54.32L147.76-54.32L147.76-1.68L154.56-1.68L154.56 0L125.36 0L125.36-1.68L132.16-1.68L132.16-54.32L131.12-54.32L131.12-54.32Q126-54.32 123.20-50.28L123.20-50.28L123.20-50.28Q120.40-46.24 117.04-35.92L117.04-35.92L115.52-35.92L116.32-56" fill="#51cacc" stroke="none" stroke-width="none" transform="translate(-103.15997314453125,21.842402725219728)" style="fill: rgb(224, 255, 119);"></path></g><g class="path" style="opacity: 1; transform-origin: 86.12px -6.1976px; animation: 5.55556s linear 0s infinite normal forwards running fade-cc694990-4071-424e-8a41-a53f22775b8b;"><path d="M190.88-0.88L190.88-0.88L190.88-0.88Q194.88-0.88 197.96-3.04L197.96-3.04L197.96-3.04Q201.04-5.20 201.04-9.56L201.04-9.56L201.04-9.56Q201.04-13.92 197.72-16.24L197.72-16.24L197.72-16.24Q194.40-18.56 188.28-20.28L188.28-20.28L188.28-20.28Q182.16-22 179.40-23.28L179.40-23.28L179.40-23.28Q176.64-24.56 174.16-26.64L174.16-26.64L174.16-26.64Q169.20-30.80 169.20-39.52L169.20-39.52L169.20-39.52Q169.20-46.64 174.28-51.76L174.28-51.76L174.28-51.76Q179.36-56.88 188.16-56.88L188.16-56.88L188.16-56.88Q192.40-56.88 197-55.64L197-55.64L197-55.64Q201.60-54.40 202.72-54.40L202.72-54.40L202.72-54.40Q203.84-54.40 204.72-56L204.72-56L205.60-56L206.16-39.84L204.88-39.84L204.88-39.84Q201.04-46.80 196.84-51L196.84-51L196.84-51Q192.64-55.20 187.72-55.20L187.72-55.20L187.72-55.20Q182.80-55.20 180.08-52.92L180.08-52.92L180.08-52.92Q177.36-50.64 177.36-46.84L177.36-46.84L177.36-46.84Q177.36-43.04 180.60-41L180.60-41L180.60-41Q183.84-38.96 188.56-37.68L188.56-37.68L188.56-37.68Q193.28-36.40 194.76-35.92L194.76-35.92L194.76-35.92Q196.24-35.44 198.44-34.60L198.44-34.60L198.44-34.60Q200.64-33.76 202.04-32.84L202.04-32.84L202.04-32.84Q203.44-31.92 205-30.52L205-30.52L205-30.52Q206.56-29.12 207.44-27.44L207.44-27.44L207.44-27.44Q209.60-23.60 209.60-18.32L209.60-18.32L209.60-18.32Q209.60-9.68 204.20-4.44L204.20-4.44L204.20-4.44Q198.80 0.80 190 0.80L190 0.80L190 0.80Q185.44 0.80 179.56-0.40L179.56-0.40L179.56-0.40Q173.68-1.60 173.04-1.60L173.04-1.60L173.04-1.60Q171.92-1.60 170.88 0.80L170.88 0.80L169.76 0.80L168.96-18.24L170.32-18.24L170.32-18.24Q173.84-11.28 179.32-6.08L179.32-6.08L179.32-6.08Q184.80-0.88 190.88-0.88" fill="#51cacc" stroke="none" stroke-width="none" transform="translate(-103.15997314453125,21.842402725219728)" style="fill: rgb(222, 157, 214);"></path></g></g>
</g>
</g>
<style id="fade-cc694990-4071-424e-8a41-a53f22775b8b" data-anikit="">@keyframes fade-cc694990-4071-424e-8a41-a53f22775b8b
{
  0% {
    animation-timing-function: cubic-bezier(0.2057,0.573,0.3723,0.9184);
    opacity: 1;
  }
  100% {
    opacity: 0;
  }
}</style></svg>